<?xml version="1.0" encoding="UTF-8"?>
<svg id="Layer_1" xmlns="http://www.w3.org/2000/svg" version="1.1" viewBox="0 0 800 800">
  <!-- Generator: Adobe Illustrator 30.1.0, SVG Export Plug-In . SVG Version: 2.1.1 Build 136)  -->
  <defs>
    <style>
      .st0, .st1 {
        fill: #163e64;
      }

      .st1 {
        fill-rule: evenodd;
      }
    </style>
  </defs>
  <path class="st0" d="M266.7,313.9c-13-13-13-34.1,0-47.1,13-13,34.1-13,47.1,0l86.3,86.3,86.1-86.1c13-13,34.1-13,47.1,0,13,13,13,34.1,0,47.1l-86.1,86.1,86.1,86.1c13,13,13,34.1,0,47.1-13,13-34.1,13-47.1,0l-86.1-86.1-86.1,86.1c-13,13-34.1,13-47.1,0-13-13-13-34.1,0-47.1l86.1-86.1-86.3-86.3Z"/>
  <path class="st1" d="M766.7,133.3c0-55.2-44.8-100-100-100H133.3c-55.2,0-100,44.8-100,100v533.3c0,55.2,44.8,100,100,100h533.3c55.2,0,100-44.8,100-100V133.3ZM700,133.3c0-18.4-14.9-33.3-33.3-33.3H133.3c-18.4,0-33.3,14.9-33.3,33.3v533.3c0,18.4,14.9,33.3,33.3,33.3h533.3c18.4,0,33.3-14.9,33.3-33.3V133.3Z"/>
</svg>