<?xml version="1.0" encoding="UTF-8"?>
<svg id="Layer_2" data-name="Layer 2" xmlns="http://www.w3.org/2000/svg" viewBox="0 0 321.73 321.73">
  <defs>
    <style>
      .cls-1 {
        fill: #fff;
      }

      .cls-2 {
        fill: #163e64;
      }
    </style>
  </defs>
  <g id="Layer_1-2" data-name="Layer 1">
    <g>
      <path class="cls-2" d="M160.87,321.73C72.16,321.73,0,249.57,0,160.86S72.16,0,160.87,0s160.86,72.16,160.86,160.86-72.16,160.86-160.86,160.86Z"/>
      <circle class="cls-1" cx="160.86" cy="160.86" r="150.86"/>
      <g>
        <polygon class="cls-2" points="256.81 263.75 172.3 263.75 64.92 57.98 149.43 57.98 256.81 263.75"/>
        <g>
          <path class="cls-2" d="M256.81,150.04c-127.47,0-63.96,113.67-191.89,113.7v-89.45c127.68,0,53.88-116.32,191.89-116.32v92.06Z"/>
          <path class="cls-1" d="M76.02,185.09c60.18-3.38,75.98-34.56,90.01-62.24,13.73-27.09,25.7-50.71,79.69-53.5v69.89c-61.11,3.33-78.69,34.47-94.3,62.11-14.48,25.65-27.13,48.04-75.4,50.97v-67.23Z"/>
        </g>
      </g>
    </g>
  </g>
</svg>