<?xml version="1.0" encoding="UTF-8"?>
<svg id="Layer_2" data-name="Layer 2" xmlns="http://www.w3.org/2000/svg" viewBox="0 0 2053.8 487.37">
  <defs>
    <style>
      .cls-1 {
        fill: #fff;
      }

      .cls-2 {
        fill: #1d76e8;
      }
    </style>
  </defs>
  <g id="Layer_1-2" data-name="Layer 1">
    <g>
      <g>
        <polygon class="cls-2" points="310 2.43 0 2.43 0 99.45 97.45 99.45 97.45 354.08 211.11 354.08 211.11 99.45 310 99.45 310 2.43"/>
        <polygon class="cls-2" points="386.82 2.43 254.73 354.08 368.95 354.08 439.98 138.8 510.1 354.08 631.11 354.08 498.52 2.43 386.82 2.43"/>
        <polygon class="cls-2" points="1142.62 216.1 1315.32 216.1 1315.32 129.03 1142.62 129.03 1142.62 95.66 1310.49 95.66 1310.49 2.43 1028.96 2.43 1028.96 354.08 1315.32 354.08 1315.32 256.58 1142.62 256.58 1142.62 216.1"/>
        <path class="cls-2" d="M1620.66,192.65c32.45-18.09,49.51-46.54,49.51-82.91,0-34.47-14.33-62.68-41.41-81.61-24.08-16.81-57.01-25.7-95.26-25.7h-177.67v351.65h113.66v-118.07h48.57c27.66,0,50.09,22.43,50.09,50.09v67.98h99.27c0-32,1.44-74.57-5.59-105.79-5.66-25.96-19.17-44.26-41.16-55.65ZM1517.1,152.74h-47.61v-59.93h49.06c16.88,0,36.99,5.25,36.99,30.2,0,19.73-12.93,29.73-38.44,29.73Z"/>
        <path class="cls-2" d="M2004.4,51.2C1971.27,17.7,1925.41,0,1871.79,0s-99.26,17.71-132.14,51.22c-31.54,32.14-48.91,77.58-48.91,127.96s17.37,95.72,48.91,127.74c32.85,33.35,78.54,50.98,132.13,50.98s99.5-17.62,132.6-50.96c31.86-32.09,49.41-77.46,49.41-127.76s-17.54-95.77-49.4-127.98ZM1921.5,243.57c-11.67,16.27-28.23,24.52-49.23,24.52s-37.56-8.25-49.23-24.52c-11.25-15.69-17.2-37.95-17.2-64.39s5.95-48.83,17.21-64.64c11.69-16.41,28.25-24.74,49.21-24.74s37.52,8.32,49.21,24.74c11.26,15.81,17.21,38.16,17.21,64.64s-5.95,48.7-17.2,64.39Z"/>
        <g>
          <polygon class="cls-2" points="988.79 354.08 844.37 354.08 660.85 2.43 805.27 2.43 988.79 354.08"/>
          <g>
            <path class="cls-2" d="M988.79,159.76c-217.85,0-109.31,194.26-327.94,194.32v-152.87c218.2,0,92.09-198.79,327.94-198.79v157.33Z"/>
            <path class="cls-1" d="M679.81,219.66c102.85-5.78,129.85-59.06,153.83-106.37,23.46-46.3,43.93-86.67,136.19-91.43v119.44c-104.44,5.7-134.48,58.9-161.16,106.15-24.75,43.84-46.37,82.11-128.86,87.12v-114.91Z"/>
          </g>
        </g>
      </g>
      <g>
        <path class="cls-2" d="M403.63,403.82v8.78h-22.55v73.94h-10.8v-73.94h-22.67v-8.78h56.02Z"/>
        <path class="cls-2" d="M489.56,468.15h-36.08l-6.65,18.4h-11.39l29.91-82.25h12.46l29.79,82.25h-11.39l-6.65-18.4ZM486.47,459.36l-14.95-41.78-14.95,41.78h29.91Z"/>
        <path class="cls-2" d="M578.21,445.24l25.4,41.3h-12.22l-19.82-32.28-18.87,32.28h-11.99l25.28-41.3-25.4-41.42h12.11l19.94,32.4,18.99-32.4h12.11l-25.52,41.42Z"/>
        <path class="cls-2" d="M746.45,408.86c6.61,3.36,11.67,8.17,15.19,14.42,3.52,6.25,5.28,13.61,5.28,22.08s-1.76,15.81-5.28,22.02c-3.52,6.21-8.59,10.96-15.19,14.24-6.61,3.28-14.42,4.93-23.44,4.93h-25.75v-82.72h25.75c9.02,0,16.83,1.68,23.44,5.04ZM747.46,469.16c5.62-5.66,8.43-13.59,8.43-23.8s-2.83-18.32-8.49-24.09c-5.66-5.77-13.79-8.66-24.39-8.66h-14.95v65.04h14.95c10.68,0,18.83-2.83,24.45-8.49Z"/>
        <path class="cls-2" d="M815.7,412.6v27.65h30.15v8.9h-30.15v28.48h33.71v8.9h-44.51v-82.84h44.51v8.9h-33.71Z"/>
        <path class="cls-2" d="M890.95,423.34c3.64-6.45,8.6-11.49,14.89-15.13,6.29-3.64,13.27-5.46,20.95-5.46,9.02,0,16.89,2.18,23.62,6.53,6.72,4.35,11.63,10.52,14.72,18.51h-12.94c-2.3-4.98-5.6-8.82-9.91-11.51-4.31-2.69-9.48-4.04-15.49-4.04s-10.96,1.35-15.55,4.04c-4.59,2.69-8.19,6.51-10.8,11.45-2.61,4.95-3.92,10.74-3.92,17.39s1.31,12.32,3.92,17.27c2.61,4.95,6.21,8.76,10.8,11.45,4.59,2.69,9.77,4.04,15.55,4.04s11.17-1.32,15.49-3.98c4.31-2.65,7.61-6.47,9.91-11.45h12.94c-3.09,7.91-7.99,14.03-14.72,18.34-6.73,4.31-14.6,6.47-23.62,6.47-7.68,0-14.66-1.8-20.95-5.4-6.29-3.6-11.26-8.6-14.89-15.01-3.64-6.41-5.46-13.65-5.46-21.72s1.82-15.33,5.46-21.78Z"/>
        <path class="cls-2" d="M1015.69,477.76h28.96v8.78h-39.76v-82.72h10.8v73.94Z"/>
        <path class="cls-2" d="M1128.79,468.15h-36.08l-6.65,18.4h-11.39l29.91-82.25h12.46l29.79,82.25h-11.39l-6.65-18.4ZM1125.71,459.36l-14.95-41.78-14.95,41.78h29.91Z"/>
        <path class="cls-2" d="M1227.18,486.54l-19.7-33.83h-13.06v33.83h-10.8v-82.72h26.7c6.25,0,11.53,1.07,15.84,3.2,4.31,2.14,7.54,5.03,9.67,8.66,2.14,3.64,3.2,7.79,3.2,12.46,0,5.7-1.64,10.72-4.93,15.07-3.28,4.35-8.21,7.24-14.78,8.66l20.77,34.66h-12.94ZM1194.43,444.05h15.9c5.85,0,10.25-1.44,13.17-4.33,2.93-2.89,4.39-6.74,4.39-11.57s-1.44-8.7-4.33-11.39c-2.89-2.69-7.3-4.04-13.23-4.04h-15.9v31.33Z"/>
        <path class="cls-2" d="M1328.42,468.15h-36.08l-6.65,18.4h-11.39l29.91-82.25h12.46l29.79,82.25h-11.39l-6.65-18.4ZM1325.33,459.36l-14.95-41.78-14.95,41.78h29.91Z"/>
        <path class="cls-2" d="M1434.17,403.82v8.78h-22.55v73.94h-10.8v-73.94h-22.67v-8.78h56.02Z"/>
        <path class="cls-2" d="M1482,403.82v82.72h-10.8v-82.72h10.8Z"/>
        <path class="cls-2" d="M1540.63,481.97c-6.33-3.6-11.33-8.62-15.01-15.07-3.68-6.45-5.52-13.71-5.52-21.78s1.84-15.33,5.52-21.78c3.68-6.45,8.68-11.47,15.01-15.07,6.33-3.6,13.33-5.4,21.01-5.4s14.79,1.8,21.13,5.4c6.33,3.6,11.31,8.6,14.95,15.01,3.64,6.41,5.46,13.69,5.46,21.84s-1.82,15.43-5.46,21.84c-3.64,6.41-8.62,11.41-14.95,15.01-6.33,3.6-13.37,5.4-21.13,5.4s-14.68-1.8-21.01-5.4ZM1577.24,473.96c4.63-2.69,8.27-6.53,10.92-11.51,2.65-4.98,3.98-10.76,3.98-17.33s-1.33-12.44-3.98-17.39c-2.65-4.94-6.27-8.76-10.86-11.45-4.59-2.69-9.81-4.04-15.67-4.04s-11.08,1.35-15.67,4.04c-4.59,2.69-8.21,6.51-10.86,11.45-2.65,4.95-3.98,10.74-3.98,17.39s1.32,12.34,3.98,17.33c2.65,4.98,6.29,8.82,10.92,11.51,4.63,2.69,9.83,4.04,15.61,4.04s10.98-1.34,15.61-4.04Z"/>
        <path class="cls-2" d="M1706.19,486.54h-10.8l-43.44-65.87v65.87h-10.8v-82.84h10.8l43.44,65.75v-65.75h10.8v82.84Z"/>
      </g>
    </g>
  </g>
</svg>