<?xml version="1.0" encoding="UTF-8"?>
<svg id="Layer_2" data-name="Layer 2" xmlns="http://www.w3.org/2000/svg" viewBox="0 0 885.17 210.05">
  <defs>
    <style>
      .cls-1 {
        fill: #163e64;
      }
    </style>
  </defs>
  <g id="Layer_1-2" data-name="Layer 1">
    <g>
      <g>
        <polygon class="cls-1" points="133.61 1.04 0 1.04 0 42.86 42 42.86 42 152.6 90.98 152.6 90.98 42.86 133.61 42.86 133.61 1.04"/>
        <polygon class="cls-1" points="166.72 1.04 109.78 152.6 159.01 152.6 189.63 59.82 219.85 152.6 272 152.6 214.85 1.04 166.72 1.04"/>
        <polygon class="cls-1" points="492.46 41.22 564.81 41.22 564.81 1.04 443.47 1.04 443.47 152.6 566.89 152.6 566.89 110.58 492.46 110.58 492.46 93.13 566.89 93.13 566.89 55.61 492.46 55.61 492.46 41.22"/>
        <path class="cls-1" d="M719.82,47.29c0-14.85-6.17-27.01-17.85-35.17-10.37-7.25-24.57-11.08-41.05-11.08h-76.58v151.56h48.99v-50.88h20.93c11.92,0,21.59,9.66,21.59,21.58v29.3h42.78c0-13.79.62-32.14-2.4-45.59-2.44-11.19-8.27-19.08-17.75-23.98,13.99-7.8,21.34-20.06,21.34-35.74ZM653.85,65.83h-20.52v-25.83h21.15c7.27,0,15.94,2.26,15.94,13.01,0,8.51-5.58,12.82-16.57,12.82Z"/>
        <path class="cls-1" d="M863.87,22.06c-14.28-14.43-34.04-22.06-57.15-22.06s-42.78,7.63-56.95,22.07c-13.59,13.85-21.08,33.44-21.08,55.15s7.49,41.26,21.08,55.06c14.16,14.37,33.85,21.97,56.95,21.97s42.88-7.6,57.15-21.97c13.73-13.83,21.3-33.38,21.3-55.06s-7.57-41.28-21.3-55.16ZM828.14,104.97c-5.02,7.02-12.16,10.57-21.21,10.57s-16.19-3.55-21.22-10.57c-4.84-6.76-7.41-16.36-7.41-27.75s2.57-21.04,7.42-27.86c5.04-7.07,12.17-10.66,21.21-10.66s16.17,3.59,21.21,10.66c4.85,6.82,7.42,16.45,7.42,27.86s-2.57,20.99-7.42,27.75Z"/>
        <path class="cls-1" d="M361.37,28.45l-14.31-27.41h-62.24l40.29,77.21c-9.31,5.22-21.99,8.47-40.29,8.47v65.88c37.89,0,52.97-13.55,63.57-29.74l15.52,29.74h62.25l-39.71-76.08c9.56-4.75,22.18-7.67,39.71-7.67V1.04c-38.38,0-54.52,12.21-64.79,27.41ZM417.98,9.42v51.48c-14.93.81-26.33,3.88-35.32,8.36-18.12,9.02-26.44,23.78-34.13,37.39-1.51,2.67-2.99,5.28-4.52,7.82-9.3,15.44-20.49,27.86-51.02,29.72v-49.52c15.52-.88,27.04-4.26,35.9-9.17,16.42-9.09,23.69-23.43,30.4-36.68,2.11-4.15,4.15-8.19,6.44-12.01,8.68-14.52,20.76-25.77,52.25-27.39Z"/>
      </g>
      <g>
        <path class="cls-1" d="M173.96,174.04v3.79h-9.72v31.87h-4.65v-31.87h-9.77v-3.79h24.14Z"/>
        <path class="cls-1" d="M210.99,201.76h-15.55l-2.86,7.93h-4.91l12.89-35.45h5.37l12.84,35.45h-4.91l-2.86-7.93ZM209.66,197.98l-6.45-18.01-6.45,18.01h12.89Z"/>
        <path class="cls-1" d="M249.2,191.89l10.95,17.8h-5.27l-8.54-13.91-8.13,13.91h-5.17l10.9-17.8-10.95-17.85h5.22l8.59,13.96,8.18-13.96h5.22l-11,17.85Z"/>
        <path class="cls-1" d="M321.71,176.21c2.85,1.45,5.03,3.52,6.55,6.21,1.52,2.69,2.28,5.87,2.28,9.51s-.76,6.81-2.28,9.49c-1.52,2.68-3.7,4.72-6.55,6.14-2.85,1.42-6.21,2.12-10.1,2.12h-11.1v-35.65h11.1c3.89,0,7.25.72,10.1,2.17ZM322.15,202.2c2.42-2.44,3.63-5.86,3.63-10.26s-1.22-7.89-3.66-10.38c-2.44-2.49-5.94-3.73-10.51-3.73h-6.45v28.03h6.45c4.6,0,8.12-1.22,10.54-3.66Z"/>
        <path class="cls-1" d="M351.56,177.82v11.92h12.99v3.84h-12.99v12.28h14.53v3.84h-19.18v-35.7h19.18v3.84h-14.53Z"/>
        <path class="cls-1" d="M383.99,182.45c1.57-2.78,3.71-4.95,6.42-6.52,2.71-1.57,5.72-2.35,9.03-2.35,3.89,0,7.28.94,10.18,2.81,2.9,1.88,5.01,4.54,6.34,7.98h-5.58c-.99-2.15-2.41-3.8-4.27-4.96-1.86-1.16-4.08-1.74-6.68-1.74s-4.72.58-6.7,1.74c-1.98,1.16-3.53,2.81-4.65,4.94-1.13,2.13-1.69,4.63-1.69,7.49s.56,5.31,1.69,7.44c1.13,2.13,2.68,3.78,4.65,4.94,1.98,1.16,4.21,1.74,6.7,1.74s4.82-.57,6.68-1.71c1.86-1.14,3.28-2.79,4.27-4.94h5.58c-1.33,3.41-3.44,6.04-6.34,7.9-2.9,1.86-6.29,2.79-10.18,2.79-3.31,0-6.32-.78-9.03-2.33-2.71-1.55-4.85-3.71-6.42-6.47-1.57-2.76-2.35-5.88-2.35-9.36s.78-6.61,2.35-9.39Z"/>
        <path class="cls-1" d="M437.75,205.91h12.48v3.79h-17.14v-35.65h4.65v31.87Z"/>
        <path class="cls-1" d="M486.5,201.76h-15.55l-2.86,7.93h-4.91l12.89-35.45h5.37l12.84,35.45h-4.91l-2.86-7.93ZM485.17,197.98l-6.45-18.01-6.45,18.01h12.89Z"/>
        <path class="cls-1" d="M528.9,209.69l-8.49-14.58h-5.63v14.58h-4.65v-35.65h11.51c2.69,0,4.97.46,6.83,1.38,1.86.92,3.25,2.17,4.17,3.73.92,1.57,1.38,3.36,1.38,5.37,0,2.46-.71,4.62-2.12,6.5-1.42,1.88-3.54,3.12-6.37,3.73l8.95,14.94h-5.58ZM514.78,191.38h6.85c2.52,0,4.42-.62,5.68-1.87,1.26-1.24,1.89-2.91,1.89-4.99s-.62-3.75-1.87-4.91c-1.25-1.16-3.15-1.74-5.7-1.74h-6.85v13.5Z"/>
        <path class="cls-1" d="M572.53,201.76h-15.55l-2.86,7.93h-4.91l12.89-35.45h5.37l12.84,35.45h-4.91l-2.86-7.93ZM571.2,197.98l-6.45-18.01-6.45,18.01h12.89Z"/>
        <path class="cls-1" d="M618.11,174.04v3.79h-9.72v31.87h-4.65v-31.87h-9.77v-3.79h24.14Z"/>
        <path class="cls-1" d="M638.72,174.04v35.65h-4.65v-35.65h4.65Z"/>
        <path class="cls-1" d="M663.99,207.72c-2.73-1.55-4.89-3.72-6.47-6.5-1.59-2.78-2.38-5.91-2.38-9.39s.79-6.61,2.38-9.39c1.59-2.78,3.74-4.94,6.47-6.5,2.73-1.55,5.75-2.33,9.05-2.33s6.38.78,9.11,2.33c2.73,1.55,4.88,3.71,6.45,6.47,1.57,2.76,2.35,5.9,2.35,9.41s-.78,6.65-2.35,9.41c-1.57,2.76-3.72,4.92-6.45,6.47-2.73,1.55-5.76,2.33-9.11,2.33s-6.33-.78-9.05-2.33ZM679.77,204.27c1.99-1.16,3.56-2.81,4.71-4.96,1.14-2.15,1.71-4.64,1.71-7.47s-.57-5.36-1.71-7.49c-1.14-2.13-2.7-3.78-4.68-4.94-1.98-1.16-4.23-1.74-6.75-1.74s-4.77.58-6.75,1.74c-1.98,1.16-3.54,2.81-4.68,4.94-1.14,2.13-1.71,4.63-1.71,7.49s.57,5.32,1.71,7.47c1.14,2.15,2.71,3.8,4.71,4.96,1.99,1.16,4.24,1.74,6.73,1.74s4.73-.58,6.73-1.74Z"/>
        <path class="cls-1" d="M735.35,209.69h-4.65l-18.72-28.39v28.39h-4.65v-35.7h4.65l18.72,28.34v-28.34h4.65v35.7Z"/>
      </g>
    </g>
  </g>
</svg>